<?xml version="1.0" encoding="UTF-8"?>
<svg id="Layer_2" data-name="Layer 2" xmlns="http://www.w3.org/2000/svg" viewBox="0 0 710.83 799.98">
  <defs>
    <style>
      .cls-1 {
        stroke-width: 0px;
      }
    </style>
  </defs>
  <g id="Layer_1-2" data-name="Layer 1">
    <path class="cls-1" d="M701.87,199.99h0c-5.57-9.67-13.27-18.1-21.73-23L386.27,7.32c-16.93-9.77-44.63-9.77-61.57,0L30.77,176.99C13.83,186.76,0,210.76,0,230.32v339.33c0,9.8,3.47,20.67,9.03,30.33,5.57,9.67,13.27,18.1,21.73,22.97l293.87,169.7c16.93,9.77,44.63,9.77,61.57,0l293.87-169.7c8.47-4.87,16.17-13.3,21.73-22.97,5.57-9.67,9.03-20.53,9.03-30.33V230.32c.07-9.8-3.4-20.67-8.97-30.33ZM355.43,636.96c-130.67,0-236.97-106.3-236.97-236.97s106.3-236.97,236.97-236.97c84.59.15,162.73,45.24,205.2,118.4l-102.53,59.37c-21.22-36.64-60.33-59.22-102.67-59.3-65.33,0-118.47,53.17-118.47,118.5s53.13,118.5,118.47,118.5c42.33-.09,81.42-22.66,102.67-59.27l102.57,59.33c-42.48,73.16-120.63,118.24-205.23,118.4Z"/>
  </g>
</svg>