<?xml version="1.0" encoding="UTF-8"?>
<svg id="Layer_2" data-name="Layer 2" xmlns="http://www.w3.org/2000/svg" viewBox="0 0 696.05 799.99">
  <defs>
    <style>
      .cls-1 {
        stroke-width: 0px;
      }
    </style>
  </defs>
  <g id="Layer_1-2" data-name="Layer 1">
    <g>
      <path class="cls-1" d="M150,400c0,110.46,89.55,200.01,200.01,200.01,56.95,0,108.4-23.86,144.78-62.02,14.29-14.99,13.73-38.72-1.27-53.02-14.99-14.29-38.73-13.72-53.02,1.27-22.81,23.93-54.89,38.77-90.5,38.77-69.04,0-125.01-55.97-125.01-125.01s55.97-125.01,125.01-125.01c35.46,0,67.41,14.71,90.21,38.47,14.34,14.94,38.08,15.43,53.02,1.09,14.94-14.34,15.43-38.08,1.09-53.02-36.35-37.88-87.61-61.53-144.32-61.53-110.46,0-200.01,89.55-200.01,200.01Z"/>
      <path class="cls-1" d="M677.44,186.35l-71.4-41.65c-1.02-.75-2.1-1.45-3.21-2.1L367.11,5.1C361.21,1.66,354.62-.03,348.02,0c-6.59-.03-13.19,1.66-19.09,5.1L93.22,142.6c-1.12.65-2.19,1.35-3.21,2.1l-71.4,41.65C7.08,193.07,0,205.41,0,218.74v362.5c0,13.34,7.08,25.67,18.6,32.39l71.4,41.65c1.02.75,2.1,1.45,3.22,2.1l235.72,137.5c5.9,3.44,12.49,5.14,19.09,5.1,6.59.03,13.19-1.66,19.09-5.1l235.72-137.5c1.12-.65,2.19-1.35,3.22-2.1l71.4-41.65c11.52-6.72,18.6-19.05,18.6-32.39V218.74c0-13.34-7.08-25.67-18.6-32.39ZM621.05,559.7l-273.02,159.26-273.02-159.26V240.28L348.02,81.02l273.02,159.26v319.42Z"/>
    </g>
  </g>
</svg>