<svg version="1.2" xmlns="http://www.w3.org/2000/svg" viewBox="0 0 37 26" width="37" height="26">
	<title>image</title>
	<style>
		.s0 { fill: #b70101 } 
	</style>
	<path class="s0" d="m36.96 25h-8.64v-16.32h-1.03v8.1q0 1.95-0.6 3.61-0.58 1.67-1.73 2.85-1.12 1.15-2.79 1.82-1.63 0.68-3.71 0.68-2.08 0-3.71-0.68-1.63-0.67-2.75-1.85-1.12-1.19-1.73-2.82-0.58-1.66-0.58-3.61v-8.1h-1.02v16.32h-8.64v-15.36q0-1.89 0.67-3.52 0.67-1.66 1.89-2.85 1.22-1.21 2.88-1.89 1.7-0.7 3.71-0.7 2.15 0 3.78 0.7 1.66 0.68 2.75 1.92 1.12 1.25 1.7 3.01 0.57 1.76 0.57 3.84v7.59h1.03v-7.59q0-2.05 0.57-3.77 0.58-1.76 1.7-3.01 1.15-1.28 2.85-1.99 1.72-0.7 4-0.7 1.92 0 3.52 0.7 1.63 0.68 2.81 1.89 1.19 1.19 1.83 2.85 0.67 1.63 0.67 3.52z"/>
</svg>